Coordinates
version=1
nRows=17
nColumns=40
inDegrees=yes

Units are S.I. units (second, meters, Newtons, ...)
If the header above contains a line with 'inDegrees', this indicates whether rotational values are in degrees (yes) or radians (no).

endheader
time	pelvis_tilt	pelvis_list	pelvis_rotation	pelvis_tx	pelvis_ty	pelvis_tz	hip_flexion_r	hip_adduction_r	hip_rotation_r	knee_angle_r	knee_angle_r_beta	ankle_angle_r	subtalar_angle_r	mtp_angle_r	hip_flexion_l	hip_adduction_l	hip_rotation_l	knee_angle_l	knee_angle_l_beta	ankle_angle_l	subtalar_angle_l	mtp_angle_l	lumbar_extension	lumbar_bending	lumbar_rotation	arm_flex_r	arm_add_r	arm_rot_r	elbow_flex_r	pro_sup_r	wrist_flex_r	wrist_dev_r	arm_flex_l	arm_add_l	arm_rot_l	elbow_flex_l	pro_sup_l	wrist_flex_l	wrist_dev_l
      0.00000000	      6.85126907	      5.82220479	     -7.87792597	      0.06605048	      1.32998154	      0.01505301	     45.99900425	     -9.32936664	      4.29497873	    100.56926822	      1.75526486	      8.43689308	    -10.33437848	      0.00000000	     30.85831826	     -4.68418273	    -11.26832363	     51.57073316	      0.90007909	      5.00404488	     -5.83176951	      0.00000000	    -63.48812721	     -0.64174879	     -4.30899410	     46.80684715	      1.24957217	     -6.11851808	     41.21252019	     27.31377813	      0.00000000	      0.00000000	     51.74957737	     14.40279969	     -4.82741146	     33.83697001	      9.36265712	      0.00000000	      0.00000000
      0.01700000	      6.94873132	      5.09604818	     -8.29854419	      0.06561977	      1.33022561	      0.01511183	     47.45928277	     -9.18112706	      3.70850379	    101.95044901	      1.77937101	      8.40247974	     -9.51738807	      0.00000000	     28.64376488	     -5.11567988	    -11.08743459	     49.44897439	      0.86304741	      4.06223722	     -6.00675826	      0.00000000	    -63.54496813	     -0.44331998	     -3.62453138	     46.80446181	      1.18467492	     -5.62722953	     41.11882234	     27.32266862	      0.00000000	      0.00000000	     51.40915197	     14.23243219	     -4.82561765	     34.03512272	      9.28210174	      0.00000000	      0.00000000
      0.03300000	      6.74645828	      4.32292332	     -8.58436172	      0.06515333	      1.32974030	      0.01496440	     49.23197652	     -9.02092590	      2.94455492	    103.36724352	      1.80409874	      8.41548811	     -9.07086783	      0.00000000	     26.78291984	     -5.53687146	    -10.65287707	     47.34481704	      0.82632294	      3.42747430	     -6.21894725	      0.00000000	    -63.28173613	     -0.10253552	     -2.88350379	     46.73875855	      1.16650682	     -5.35560859	     41.00357704	     27.35202903	      0.00000000	      0.00000000	     51.07747488	     14.13062825	     -4.91242428	     34.11579001	      9.23440036	      0.00000000	      0.00000000
      0.05000000	      6.82381696	      3.76284931	     -8.97000002	      0.06484208	      1.32990566	      0.01500261	     50.78937256	     -8.81349193	      2.71851272	    104.49106127	      1.82371306	      8.42730665	     -8.32808551	      0.00000000	     24.75002551	     -5.89506525	    -10.69171991	     45.48796655	      0.79391479	      2.06195898	     -6.38181214	      0.00000000	    -63.34834528	      0.01294772	     -2.36135497	     46.77707592	      1.04001968	     -4.70661624	     40.91028349	     27.40757949	      0.00000000	      0.00000000	     50.75218960	     14.04232698	     -5.14125887	     34.39107299	      9.19766447	      0.00000000	      0.00000000
      0.06700000	      6.65751423	      3.38864106	     -9.10788621	      0.06465975	      1.32962037	      0.01491563	     52.72053968	     -8.60099705	      2.75769727	    105.37101467	      1.83907114	      8.68199207	     -7.99299291	      0.00000000	     23.21232038	     -6.11262576	    -10.69073891	     44.19458989	      0.77134111	      1.42746286	     -6.43147482	      0.00000000	    -63.18430698	      0.20413860	     -1.95617271	     46.74379238	      0.93451200	     -4.40632392	     40.88526774	     27.41531985	      0.00000000	      0.00000000	     50.59063583	     14.03760286	     -5.30268572	     34.51176770	      9.22108650	      0.00000000	      0.00000000
      0.08300000	      6.48005045	      3.41636166	     -9.38936368	      0.06456843	      1.32914700	      0.01506684	     54.88767223	     -8.36370591	      3.46891665	    106.05800380	      1.85106136	      9.01988759	     -7.51631966	      0.00000000	     21.87336576	     -6.14250063	    -11.28252546	     43.28919354	      0.75553896	      0.52691382	     -6.35436798	      0.00000000	    -62.97728787	      0.00872591	     -1.79114102	     46.67561567	      0.73657872	     -3.98136596	     40.96086510	     27.35634314	      0.00000000	      0.00000000	     50.46754476	     14.11634637	     -5.58166766	     34.66657492	      9.25806992	      0.00000000	      0.00000000
      0.10000000	      6.26424383	      3.43399052	     -9.49934881	      0.06457921	      1.32861063	      0.01516316	     56.85933764	     -8.20539756	      3.96028978	    106.31439034	      1.85553615	      9.33779809	     -7.21153432	      0.00000000	     20.83616098	     -6.15715542	    -11.56105315	     42.88449930	      0.74847571	      0.10099278	     -6.30759893	      0.00000000	    -62.74722739	     -0.07546280	     -1.65258345	     46.60150470	      0.62394404	     -3.79974516	     41.02268155	     27.23179665	      0.00000000	      0.00000000	     50.41732897	     14.20193255	     -5.78441938	     34.74041813	      9.39384217	      0.00000000	      0.00000000
      0.11700000	      6.14365119	      3.35895177	     -9.41045903	      0.06475399	      1.32842944	      0.01507220	     58.36928880	     -8.16972192	      4.08007636	    106.05692791	      1.85104259	      9.60534401	     -7.18876942	      0.00000000	     19.95162234	     -6.21108470	    -11.43913308	     42.95801669	      0.74975883	     -0.02165842	     -6.27075538	      0.00000000	    -62.65175603	      0.02353796	     -1.52851333	     46.59122345	      0.58312070	     -3.79209003	     41.02354499	     27.22206945	      0.00000000	      0.00000000	     50.40954410	     14.28342400	     -5.88881904	     34.80641152	      9.54251165	      0.00000000	      0.00000000
      0.13300000	      5.95042602	      3.51739343	     -9.36103313	      0.06495550	      1.32791616	      0.01512416	     59.86019860	     -8.17326627	      4.38941047	    105.46189167	      1.84065725	      9.98397116	     -7.22334680	      0.00000000	     19.46304125	     -6.17790297	    -11.47224199	     43.66639209	      0.76212231	     -0.02412461	     -6.20650241	      0.00000000	    -62.44439972	     -0.08790193	     -1.57379864	     46.56334669	      0.59821292	     -3.87801487	     41.03052661	     27.18625110	      0.00000000	      0.00000000	     50.43893036	     14.44814004	     -6.24200888	     34.80504777	      9.83258420	      0.00000000	      0.00000000
      0.15000000	      5.73481304	      3.67719881	     -9.25891289	      0.06516840	      1.32749761	      0.01511458	     61.11266372	     -8.24562467	      4.59355617	    104.49096604	      1.82371140	     10.15515027	     -7.34811700	      0.00000000	     19.22961720	     -6.14132731	    -11.33313356	     44.73868111	      0.78083729	      0.26338366	     -6.28242318	      0.00000000	    -62.25124704	     -0.16309662	     -1.62922651	     46.53790583	      0.57072060	     -3.93298053	     41.09974220	     27.00652684	      0.00000000	      0.00000000	     50.49130037	     14.60055543	     -6.42083438	     34.82856997	      9.83923579	      0.00000000	      0.00000000
      0.16700000	      5.69193862	      3.85726858	     -9.12365995	      0.06552966	      1.32740661	      0.01515658	     61.87426023	     -8.41086489	      4.71710718	    103.17574119	      1.80075639	     10.32544461	     -7.67929409	      0.00000000	     19.08478884	     -6.09724379	    -11.14705758	     46.28871546	      0.80789049	      0.71787731	     -6.41461561	      0.00000000	    -62.25823168	     -0.23257192	     -1.76760988	     46.55335849	      0.53964515	     -3.95831251	     41.14188153	     26.88345274	      0.00000000	      0.00000000	     50.61738285	     14.66723727	     -6.43143721	     34.81588601	      9.92462730	      0.00000000	      0.00000000
      0.18300000	      5.86545669	      4.18583615	     -9.07197182	      0.06595113	      1.32769608	      0.01532556	     62.19155035	     -8.66967226	      4.97877944	    101.51311501	      1.77173809	     10.41551029	     -7.95886128	      0.00000000	     18.91878954	     -5.95222483	    -11.04774097	     48.15108472	      0.84039497	      1.04052885	     -6.40139693	      0.00000000	    -62.48269106	     -0.46610367	     -2.04252118	     46.61046896	      0.50514693	     -3.97564504	     41.23874589	     26.87005916	      0.00000000	      0.00000000	     50.75829353	     14.71500563	     -6.40083365	     34.81872170	     10.07211318	      0.00000000	      0.00000000
      0.20000000	      5.62052796	      4.27387653	     -8.72030470	      0.06613093	      1.32735465	      0.01517452	     62.55056769	     -8.94847924	      4.73384977	     99.57245967	      1.73786727	     10.36443330	     -8.76041923	      0.00000000	     19.56632628	     -6.02251126	    -10.47683332	     50.66332299	      0.88424180	      1.88301064	     -6.90521682	      0.00000000	    -62.30857231	     -0.30100167	     -2.14387549	     46.61782544	      0.42714753	     -3.98279947	     41.33938376	     26.60239159	      0.00000000	      0.00000000	     50.91830759	     14.81193994	     -6.40254776	     34.71770441	     10.18875524	      0.00000000	      0.00000000
      0.21700000	      5.95196089	      4.74780923	     -8.70728157	      0.06647699	      1.32787344	      0.01555734	     62.16964823	     -9.25755013	      5.13274359	     97.45275817	      1.70087150	     10.42223642	     -8.96027417	      0.00000000	     19.67918543	     -5.76814834	    -10.36749382	     53.22583176	      0.92896601	      2.26515891	     -6.93976838	      0.00000000	    -62.63033460	     -0.68481458	     -2.56460040	     46.59840311	      0.40511382	     -4.01670994	     41.45332157	     26.60291530	      0.00000000	      0.00000000	     51.04373982	     14.83611020	     -6.36247346	     34.72681173	     10.38364915	      0.00000000	      0.00000000
      0.23300000	      6.02213323	      4.87156919	     -8.35960976	      0.06663005	      1.32805955	      0.01544978	     61.56439212	     -9.64938193	      4.92627122	     94.99001535	      1.65788852	     10.59080618	     -9.27061006	      0.00000000	     20.39055572	     -5.74376080	     -9.71762933	     56.37301450	      0.98389471	      3.16923399	     -7.80731216	      0.00000000	    -62.72393924	     -0.56440739	     -2.75151895	     46.56505035	      0.32556749	     -4.08398153	     41.55598594	     26.47683571	      0.00000000	      0.00000000	     51.21039495	     14.94853481	     -6.39097163	     34.59450178	     10.54785559	      0.00000000	      0.00000000
      0.25000000	      6.24888179	      5.20231433	     -8.07630521	      0.06680452	      1.32847557	      0.01536382	     60.64936605	    -10.15304975	      4.92881193	     92.36105917	      1.61200458	     10.48583635	     -9.56564404	      0.00000000	     21.10314407	     -5.52055342	     -9.16510146	     59.64837958	      1.04106062	      3.67835886	     -8.32280448	      0.00000000	    -62.93838492	     -0.60951337	     -3.14914213	     46.52851429	      0.30945866	     -4.19577368	     41.69133374	     26.37191799	      0.00000000	      0.00000000	     51.33099512	     15.00700006	     -6.38469797	     34.52869930	     10.74790258	      0.00000000	      0.00000000
      0.26700000	      6.51351502	      5.54346140	     -7.75770864	      0.06683428	      1.32899818	      0.01543983	     59.42988147	    -10.67474542	      4.90062043	     89.46122318	      1.56139290	     10.15633014	     -9.85518893	      0.00000000	     21.95258163	     -5.25517118	     -8.47782896	     63.14110410	      1.10202016	      4.19497955	     -8.83847883	      0.00000000	    -63.18750905	     -0.66463805	     -3.59336298	     46.46723838	      0.34677800	     -4.42523779	     41.78259836	     26.30022283	      0.00000000	      0.00000000	     51.50052239	     15.04305483	     -6.37183209	     34.46010566	     11.08650727	      0.00000000	      0.00000000
